# xmcd
#
# Track frame offsets:
#	150
#	17953
#	33699
#	48465
#	64803
#	81398
#	102148
#	118373
#	132688
#	149983
#	164355
#	180427
#	194904
#	212496
#	228857
#	246406
#	262757
#	279264
#	297008
#	313567
#	330562
#
# Disc length: 4668 seconds
#
# Revision: 0
# Processed by: cddbd v1.5.2PL0 Copyright (c) Steve Scherf et al.
# Submitted via: dBpowerAMP V4.0
#
DISCID=48123a15
DTITLE=Various Artist - ERG Nu Country Traxx Vol. 237 CAN
DYEAR=2014
DGENRE=Country
TTITLE0=Miranda Lambert - Automatic
TTITLE1=Luke Bryan - Dirt Road Diary
TTITLE2=Chad Brownlee - Fallin' Over You
TTITLE3=Jennifer Nettles - Me Without You
TTITLE4=Lee Brice - I Don't Dance
TTITLE5=Hunter Hayes - Invisible
TTITLE6=Brett Kissel - 3-2-1
TTITLE7=Easton Corbin - Clockwork
TTITLE8=Bobby Wills - Crazy Enough
TTITLE9=Chase Rice - Ready Set Roll
TTITLE10=Codie Prevost - Someday
TTITLE11=Lucy Hale - You Sound Good To Me
TTITLE12=Darius Rucker - Miss You
TTITLE13=Autumn Hill - If She Wants This Town
TTITLE14=Maggie  Rose - Looking Back Now
TTITLE15=Natalie Stovall And The Drive - Baby Come On With It
TTITLE16=Chuck Wicks - Us Again
TTITLE17=Katie Armiger - Safe
TTITLE18=Gloriana - Best Night Ever
TTITLE19=Eric Paslay - Song About A Girl
TTITLE20=Tristan Horncastle - A Little Bit Of Alright
EXTD=
EXTT0=
EXTT1=
EXTT2=
EXTT3=
EXTT4=
EXTT5=
EXTT6=
EXTT7=
EXTT8=
EXTT9=
EXTT10=
EXTT11=
EXTT12=
EXTT13=
EXTT14=
EXTT15=
EXTT16=
EXTT17=
EXTT18=
EXTT19=
EXTT20=
PLAYORDER=
